<svg width="113" height="80" xmlns="http://www.w3.org/2000/svg" xmlns:xlink="http://www.w3.org/1999/xlink" xml:space="preserve" overflow="hidden"><defs><clipPath id="clip0"><rect x="1170" y="126" width="113" height="80"/></clipPath></defs><g clip-path="url(#clip0)" transform="translate(-1170 -126)"><path d="M0 0 113 0 113 113 0 113 0 0Z" fill="#FFFFFF" fill-rule="evenodd" transform="matrix(1 0 0 1.02148 1170 107.906)"/><path d="M111.329 92.4437 111.329 74.6556 1.66139 74.6556 1.66139 92.4437 111.329 92.4437Z" fill="#001C4E" fill-rule="evenodd" transform="matrix(1 0 0 1.02148 1170 107.906)"/><path d="M15.7855 87.3476 15.2045 87.3476 15.2045 83.805 10.2145 83.805 10.2145 87.3476 9.63357 87.3476 9.63357 79.8684 10.2145 79.8684 10.2145 83.3231 15.2045 83.3231 15.2045 79.8684 15.7855 79.8684 15.7855 87.3476ZM25.6008 87.3476 25.0199 87.3476 25.0199 79.8684 25.6008 79.8684 25.6008 87.3476ZM35.4056 86.8645 39.1012 86.8645 39.1012 87.3476 34.824 87.3476 34.824 79.8684 35.4056 79.8684 35.4056 86.8645ZM51.3183 80.3503 48.05 80.3503 48.05 83.1912 51.0005 83.1912 51.0005 83.6731 48.05 83.6731 48.05 87.3476 47.4691 87.3476 47.4691 79.8684 51.3183 79.8684 51.3183 80.3503ZM60.3662 87.3476 59.7841 87.3476 59.7841 79.8684 60.3662 79.8684 60.3662 87.3476ZM75.851 81.0638C74.9406 80.5485 74.0958 80.3069 73.1971 80.3069 71.3 80.3069 69.896 81.711 69.896 83.608 69.896 85.2852 71.0034 86.9091 73.3607 86.9091 74.2277 86.9091 74.8204 86.7444 75.4125 86.4489L75.4125 84.4305 73.8326 84.4305 73.8326 83.9486 75.9934 83.9486 75.9934 86.8112C75.1047 87.2386 74.206 87.4467 73.3396 87.4467 71.0151 87.4467 69.2717 85.8023 69.2717 83.5869 69.2717 81.3932 70.9718 79.7705 73.2862 79.7705 74.1298 79.7705 74.7987 79.9341 75.8522 80.406L75.8522 81.0638 75.851 81.0638ZM89.0764 80.3503 85.5783 80.3503 85.5783 83.3448 88.9885 83.3448 88.9885 83.8267 85.5783 83.8267 85.5783 86.8645 89.1649 86.8645 89.1649 87.3476 84.9968 87.3476 84.9968 79.8684 89.0764 79.8684 89.0764 80.3503ZM98.4526 80.3503 99.6696 80.3503C101.041 80.3503 101.643 80.9653 101.643 81.8089 101.643 82.7087 101.008 83.2791 99.6913 83.2791L98.4526 83.2791 98.4526 80.3503ZM97.8723 79.8684 97.8723 87.3476 98.4526 87.3476 98.4526 83.7616 99.4615 83.7616C100.361 83.7616 100.646 83.8818 101.546 85.297L102.851 87.3476 103.531 87.3476 101.842 84.76C101.49 84.2335 101.194 83.805 100.844 83.6198 101.798 83.268 102.27 82.6648 102.27 81.7995 102.27 80.8011 101.622 79.869 99.7916 79.869L97.8723 79.869 97.8723 79.8684ZM1.73525 38.3444 1.73525 74.6556 56.2432 74.6556 56.2432 38.3444 1.73525 38.3444Z" fill="#FFFFFF" fill-rule="evenodd" transform="matrix(1 0 0 1.02148 1170 107.906)"/><path d="M56.2432 74.6556 111.329 74.6556 111.329 78.1074 111.339 78.1074 111.339 38.3444 56.2432 38.3444 56.2432 74.6556Z" fill="#B81D37" fill-rule="evenodd" transform="matrix(1 0 0 1.02148 1170 107.906)"/><path d="M111.339 38.3444 111.339 20.5563 1.67018 20.5563 1.67018 38.3444 111.339 38.3444Z" fill="#001C4E" fill-rule="evenodd" transform="matrix(1 0 0 1.02148 1170 107.906)"/><path d="M15.7439 26.5828 12.9364 26.5828 12.9364 33.5794 12.3549 33.5794 12.3549 26.5828 9.5474 26.5828 9.5474 26.0997 15.7439 26.0997 15.7439 26.5828ZM36.8553 29.8393C36.8553 31.7035 35.4079 33.1404 33.5326 33.1404 31.6572 33.1404 30.1875 31.7035 30.1875 29.8393 30.1875 27.9751 31.6566 26.5388 33.5326 26.5388 35.4073 26.5388 36.8553 27.9751 36.8553 29.8393ZM37.4802 29.8393C37.4802 27.6896 35.7362 26.0012 33.5109 26.0012 31.2955 26.0012 29.5626 27.6901 29.5626 29.8393 29.5626 31.9884 31.2955 33.6773 33.5109 33.6773 35.7362 33.6779 37.4802 31.989 37.4802 29.8393ZM59.1949 26.0997 59.7765 26.0997 59.7765 33.5794 59.1949 33.5794 59.1949 26.9439 59.1732 26.9439 56.3435 30.4425 53.5143 26.9439 53.492 26.9439 53.492 33.5794 52.9105 33.5794 52.9105 26.0997 53.492 26.0997 56.3435 29.5766 59.1949 26.0997ZM81.7966 26.0997 82.3781 26.0997 82.3781 33.5794 81.7966 33.5794 81.7966 26.9439 81.7749 26.9439 78.9457 30.4425 76.1165 26.9439 76.0948 26.9439 76.0948 33.5794 75.5133 33.5794 75.5133 26.0997 76.0948 26.0997 78.9457 29.5766 81.7966 26.0997ZM100.759 29.5655 100.759 33.5794 100.177 33.5794 100.177 29.5655 97.2714 26.0997 97.9731 26.0997 100.474 29.0608 102.963 26.0997 103.665 26.0997 100.759 29.5655Z" fill="#FFFFFF" fill-rule="evenodd" transform="matrix(1 0 0 1.02148 1170 107.906)"/></g></svg>